<?xml version="1.0" encoding="UTF-8" standalone="no"?>
<!-- Created with Inkscape (http://www.inkscape.org/) -->

<svg
   width="210mm"
   height="297mm"
   viewBox="0 0 210 297"
   version="1.1"
   id="svg1711"
   inkscape:version="1.2 (dc2aeda, 2022-05-15)"
   sodipodi:docname="ae_archi.svg"
   xmlns:inkscape="http://www.inkscape.org/namespaces/inkscape"
   xmlns:sodipodi="http://sodipodi.sourceforge.net/DTD/sodipodi-0.dtd"
   xmlns="http://www.w3.org/2000/svg"
   xmlns:svg="http://www.w3.org/2000/svg">
  <sodipodi:namedview
     id="namedview1713"
     pagecolor="#ffffff"
     bordercolor="#000000"
     borderopacity="0.25"
     inkscape:showpageshadow="2"
     inkscape:pageopacity="0.0"
     inkscape:pagecheckerboard="0"
     inkscape:deskcolor="#d1d1d1"
     inkscape:document-units="mm"
     showgrid="false"
     inkscape:zoom="0.914906"
     inkscape:cx="201.66006"
     inkscape:cy="561.25984"
     inkscape:window-width="1390"
     inkscape:window-height="1205"
     inkscape:window-x="0"
     inkscape:window-y="25"
     inkscape:window-maximized="0"
     inkscape:current-layer="layer1" />
  <defs
     id="defs1708">
    <clipPath
       id="clip-0-3">
      <path
         clip-rule="nonzero"
         d="M 0,43 H 53 V 70.601562 H 0 Z m 0,0"
         id="path843" />
    </clipPath>
    <clipPath
       id="clip-1-54">
      <path
         clip-rule="nonzero"
         d="M 53,44 H 75 V 70.601562 H 53 Z m 0,0"
         id="path846" />
    </clipPath>
    <clipPath
       id="clip-2-3">
      <path
         clip-rule="nonzero"
         d="m 169,44 h 23 v 26.601562 h -23 z m 0,0"
         id="path849" />
    </clipPath>
    <clipPath
       id="clip-3">
      <path
         clip-rule="nonzero"
         d="m 220,45 h 53 v 25.601562 h -53 z m 0,0"
         id="path852" />
    </clipPath>
    <clipPath
       id="clip-0-56">
      <path
         clip-rule="nonzero"
         d="m 23,43 h 78 V 69.601562 H 23 Z m 0,0"
         id="path2189" />
    </clipPath>
    <clipPath
       id="clip-1-2">
      <path
         clip-rule="nonzero"
         d="m 142,43 h 25 v 26.601562 h -25 z m 0,0"
         id="path2192" />
    </clipPath>
    <clipPath
       id="clip-0-57">
      <path
         clip-rule="nonzero"
         d="M 2.089844,0.175781 H 75 V 26.558594 H 2.089844 Z m 0,0"
         id="path3099" />
    </clipPath>
    <clipPath
       id="clip-1-5">
      <path
         clip-rule="nonzero"
         d="M 78,0.175781 H 180.90625 V 26.558594 H 78 Z m 0,0"
         id="path3102" />
    </clipPath>
    <marker
       style="overflow:visible"
       id="TriangleStart-3"
       refX="0"
       refY="0"
       orient="auto-start-reverse"
       inkscape:stockid="TriangleStart"
       markerWidth="3"
       markerHeight="3"
       viewBox="0 0 5.3244081 6.1553851"
       inkscape:isstock="true"
       inkscape:collect="always"
       preserveAspectRatio="xMidYMid">
      <path
         transform="scale(0.5)"
         style="fill:context-stroke;fill-rule:evenodd;stroke:context-stroke;stroke-width:1pt"
         d="M 5.77,0 -2.88,5 V -5 Z"
         id="path135-7" />
    </marker>
    <marker
       style="overflow:visible"
       id="TriangleStart-0-11"
       refX="0"
       refY="0"
       orient="auto-start-reverse"
       inkscape:stockid="TriangleStart"
       markerWidth="3"
       markerHeight="3"
       viewBox="0 0 5.3244081 6.1553851"
       inkscape:isstock="true"
       inkscape:collect="always"
       preserveAspectRatio="xMidYMid">
      <path
         transform="scale(0.5)"
         style="fill:context-stroke;fill-rule:evenodd;stroke:context-stroke;stroke-width:1pt"
         d="M 5.77,0 -2.88,5 V -5 Z"
         id="path135-0-5" />
    </marker>
    <marker
       style="overflow:visible"
       id="TriangleStart-0"
       refX="0"
       refY="0"
       orient="auto-start-reverse"
       inkscape:stockid="TriangleStart"
       markerWidth="3"
       markerHeight="3"
       viewBox="0 0 5.3244081 6.1553851"
       inkscape:isstock="true"
       inkscape:collect="always"
       preserveAspectRatio="xMidYMid">
      <path
         transform="scale(0.5)"
         style="fill:context-stroke;fill-rule:evenodd;stroke:context-stroke;stroke-width:1pt"
         d="M 5.77,0 -2.88,5 V -5 Z"
         id="path135-0" />
    </marker>
    <marker
       style="overflow:visible"
       id="TriangleStart-30"
       refX="0"
       refY="0"
       orient="auto-start-reverse"
       inkscape:stockid="TriangleStart"
       markerWidth="3"
       markerHeight="3"
       viewBox="0 0 5.3244081 6.1553851"
       inkscape:isstock="true"
       inkscape:collect="always"
       preserveAspectRatio="xMidYMid">
      <path
         transform="scale(0.5)"
         style="fill:context-stroke;fill-rule:evenodd;stroke:context-stroke;stroke-width:1pt"
         d="M 5.77,0 -2.88,5 V -5 Z"
         id="path135-1" />
    </marker>
    <marker
       style="overflow:visible"
       id="TriangleStart-8"
       refX="0"
       refY="0"
       orient="auto-start-reverse"
       inkscape:stockid="TriangleStart"
       markerWidth="3"
       markerHeight="3"
       viewBox="0 0 5.3244081 6.1553851"
       inkscape:isstock="true"
       inkscape:collect="always"
       preserveAspectRatio="xMidYMid">
      <path
         transform="scale(0.5)"
         style="fill:context-stroke;fill-rule:evenodd;stroke:context-stroke;stroke-width:1pt"
         d="M 5.77,0 -2.88,5 V -5 Z"
         id="path135-6" />
    </marker>
    <marker
       style="overflow:visible"
       id="TriangleStart"
       refX="0"
       refY="0"
       orient="auto-start-reverse"
       inkscape:stockid="TriangleStart"
       markerWidth="3"
       markerHeight="3"
       viewBox="0 0 5.3244081 6.1553851"
       inkscape:isstock="true"
       inkscape:collect="always"
       preserveAspectRatio="xMidYMid">
      <path
         transform="scale(0.5)"
         style="fill:context-stroke;fill-rule:evenodd;stroke:context-stroke;stroke-width:1pt"
         d="M 5.77,0 -2.88,5 V -5 Z"
         id="path135" />
    </marker>
    <clipPath
       id="clip-0">
      <path
         clip-rule="nonzero"
         d="M 24,0 H 75 V 26.398438 H 24 Z m 0,0"
         id="path5937" />
    </clipPath>
    <clipPath
       id="clip-1">
      <path
         clip-rule="nonzero"
         d="m 78,0 h 24 V 26.398438 H 78 Z m 0,0"
         id="path5940" />
    </clipPath>
    <clipPath
       id="clip-2">
      <path
         clip-rule="nonzero"
         d="m 157,1 h 26 v 25.398438 h -26 z m 0,0"
         id="path5943" />
    </clipPath>
  </defs>
  <g
     inkscape:label="Layer 1"
     inkscape:groupmode="layer"
     id="layer1">
    <g
       fill="#000000"
       fill-opacity="1"
       id="g823"
       transform="matrix(0.16895639,0,0,0.16895639,-23.114328,82.915099)" />
    <g
       fill="#000000"
       fill-opacity="1"
       id="g829"
       transform="matrix(0.16895639,0,0,0.16895639,-23.114328,82.915099)" />
    <g
       fill="#000000"
       fill-opacity="1"
       id="g833"
       transform="matrix(0.16895639,0,0,0.16895639,-23.114328,82.915099)" />
    <g
       fill="#000000"
       fill-opacity="1"
       id="g839"
       transform="matrix(0.16895639,0,0,0.16895639,11.442539,84.501316)">
      <g
         id="g1073">
        <g
           id="use821"
           transform="translate(1.1511951,16.8512)">
          <path
             d="m 18.140625,-13.484375 c 0.25,-0.5 0.359375,-0.75 2.65625,-0.75 v -1.6875 c -0.859375,0.07813 -1.9375,0.109375 -2.828125,0.109375 -0.90625,0 -2.515625,-0.07813 -3.265625,-0.109375 v 1.6875 c 0.07813,0 1.6875,0 1.6875,0.421875 0,0.04687 -0.140625,0.40625 -0.1875,0.4375 l -4.125,8.828125 -4.546875,-9.6875 h 1.9375 v -1.6875 c -1.1875,0.07813 -4.40625,0.109375 -4.453125,0.109375 -1,0 -2.609375,-0.07813 -4.078125,-0.109375 v 1.6875 H 3.234375 L 9.9375,0 9.109375,1.71875 C 8.3125,3.4375 7.171875,5.875 4.625,5.875 4.125,5.875 4.046875,5.84375 3.765625,5.734375 4.09375,5.59375 4.90625,5.09375 4.90625,3.84375 c 0,-1.1875 -0.859375,-2.046875 -2.078125,-2.046875 -1,0 -2.046875,0.671875 -2.046875,2.078125 0,1.828125 1.6875,3.296875 3.84375,3.296875 2.765625,0 4.84375,-2.21875 5.8125,-4.265625 z m 0,0"
             id="path2631" />
        </g>
        <g
           id="use825"
           transform="translate(22.916795,25.6208)">
          <path
             d="M 5.046875,-9.921875 H 8.96875 v -0.90625 H 5.046875 V -15.4375 H 4.1875 c -0.015625,2.25 -1.046875,4.734375 -3.453125,4.8125 v 0.703125 H 3.0625 v 6.78125 c 0,2.8125 2.109375,3.390625 3.515625,3.390625 1.6875,0 2.84375,-1.4375 2.84375,-3.40625 V -4.546875 H 8.5625 V -3.1875 c 0,1.703125 -0.796875,2.640625 -1.78125,2.640625 -1.734375,0 -1.734375,-2.109375 -1.734375,-2.5625 z m 0,0"
             id="path2607" />
        </g>
        <g
           id="use827"
           transform="translate(34.123973,25.6208)">
          <path
             d="m 5,-5.71875 c 0,-2.109375 0.96875,-4.65625 3.359375,-4.65625 -0.21875,0.1875 -0.421875,0.5 -0.421875,0.90625 0,0.828125 0.65625,1.15625 1.125,1.15625 0.609375,0 1.15625,-0.40625 1.15625,-1.15625 0,-0.84375 -0.796875,-1.609375 -1.984375,-1.609375 -1.25,0 -2.640625,0.78125 -3.390625,2.6875 H 4.828125 v -2.6875 l -3.59375,0.28125 v 0.90625 c 1.671875,0 1.875,0.171875 1.875,1.40625 v 6.5 c 0,1.078125 -0.25,1.078125 -1.875,1.078125 V 0 c 0.125,0 1.828125,-0.09375 2.859375,-0.09375 1.078125,0 2.1875,0.046875 3.265625,0.09375 v -0.90625 h -0.5 C 5,-0.90625 5,-1.1875 5,-2.03125 Z m 0,0"
             id="path2599" />
        </g>
        <g
           id="use831"
           transform="translate(0.00279507,70.649597)">
          <path
             d="M 15.703125,-2.578125 V 0.21875 L 22.046875,0 v -1.6875 c -2.21875,0 -2.46875,0 -2.46875,-1.390625 v -13.0625 l -6.5625,0.296875 v 1.671875 c 2.21875,0 2.46875,0 2.46875,1.40625 v 6.84375 c 0,2.953125 -1.828125,4.84375 -4.4375,4.84375 -2.765625,0 -2.875,-0.890625 -2.875,-2.828125 v -12.234375 l -6.5625,0.296875 v 1.671875 c 2.234375,0 2.484375,0 2.484375,1.40625 v 8.359375 c 0,3.828125 2.90625,4.625 6.453125,4.625 0.921875,0 3.515625,0 5.15625,-2.796875 z m 0,0"
             id="path2623" />
        </g>
        <g
           id="use835"
           transform="translate(22.9168,76.031601)">
          <path
             d="M 5.046875,-9.921875 H 8.96875 v -0.90625 H 5.046875 V -15.4375 H 4.1875 c -0.015625,2.25 -1.046875,4.734375 -3.453125,4.8125 v 0.703125 H 3.0625 v 6.78125 c 0,2.8125 2.109375,3.390625 3.515625,3.390625 1.6875,0 2.84375,-1.4375 2.84375,-3.40625 V -4.546875 H 8.5625 V -3.1875 c 0,1.703125 -0.796875,2.640625 -1.78125,2.640625 -1.734375,0 -1.734375,-2.109375 -1.734375,-2.5625 z m 0,0"
             id="path2611" />
        </g>
        <g
           id="use837"
           transform="translate(34.123978,76.031601)">
          <path
             d="m 5,-5.71875 c 0,-2.109375 0.96875,-4.65625 3.359375,-4.65625 -0.21875,0.1875 -0.421875,0.5 -0.421875,0.90625 0,0.828125 0.65625,1.15625 1.125,1.15625 0.609375,0 1.15625,-0.40625 1.15625,-1.15625 0,-0.84375 -0.796875,-1.609375 -1.984375,-1.609375 -1.25,0 -2.640625,0.78125 -3.390625,2.6875 H 4.828125 v -2.6875 l -3.59375,0.28125 v 0.90625 c 1.671875,0 1.875,0.171875 1.875,1.40625 v 6.5 c 0,1.078125 -0.25,1.078125 -1.875,1.078125 V 0 c 0.125,0 1.828125,-0.09375 2.859375,-0.09375 1.078125,0 2.1875,0.046875 3.265625,0.09375 v -0.90625 h -0.5 C 5,-0.90625 5,-1.1875 5,-2.03125 Z m 0,0"
             id="path2603" />
        </g>
      </g>
    </g>
    <g
       id="g1113"
       inkscape:label="yt2"
       transform="translate(165.43927,-26.004776)">
      <g
         fill="#000000"
         fill-opacity="1"
         id="g843"
         transform="matrix(0.16895639,0,0,0.16895639,-26.716079,65.509094)">
        <g
           id="use841"
           transform="translate(1.522,177.7496)">
          <path
             d="m 8.96875,-24.890625 -4.8125,4.875 0.65625,0.65625 4.15625,-3.65625 4.125,3.65625 0.640625,-0.65625 z m 0,0"
             id="path2587" />
        </g>
      </g>
      <g
         fill="#000000"
         fill-opacity="1"
         id="g847"
         transform="matrix(0.16895639,0,0,0.16895639,-26.716079,65.509094)">
        <g
           id="use845"
           transform="translate(-0.39320001,178.2464)">
          <path
             d="m 18.140625,-13.484375 c 0.25,-0.5 0.359375,-0.75 2.65625,-0.75 v -1.6875 c -0.859375,0.07813 -1.9375,0.109375 -2.828125,0.109375 -0.90625,0 -2.515625,-0.07813 -3.265625,-0.109375 v 1.6875 c 0.07813,0 1.6875,0 1.6875,0.421875 0,0.04687 -0.140625,0.40625 -0.1875,0.4375 l -4.125,8.828125 -4.546875,-9.6875 h 1.9375 v -1.6875 c -1.1875,0.07813 -4.40625,0.109375 -4.453125,0.109375 -1,0 -2.609375,-0.07813 -4.078125,-0.109375 v 1.6875 H 3.234375 L 9.9375,0 9.109375,1.71875 C 8.3125,3.4375 7.171875,5.875 4.625,5.875 4.125,5.875 4.046875,5.84375 3.765625,5.734375 4.09375,5.59375 4.90625,5.09375 4.90625,3.84375 c 0,-1.1875 -0.859375,-2.046875 -2.078125,-2.046875 -1,0 -2.046875,0.671875 -2.046875,2.078125 0,1.828125 1.6875,3.296875 3.84375,3.296875 2.765625,0 4.84375,-2.21875 5.8125,-4.265625 z m 0,0"
             id="path2635" />
        </g>
      </g>
      <g
         fill="#000000"
         fill-opacity="1"
         id="g853"
         transform="matrix(0.16895639,0,0,0.16895639,-26.716079,65.509094)">
        <g
           id="use849"
           transform="translate(21.3724,187.01601)">
          <path
             d="M 5.046875,-9.921875 H 8.96875 v -0.90625 H 5.046875 V -15.4375 H 4.1875 c -0.015625,2.25 -1.046875,4.734375 -3.453125,4.8125 v 0.703125 H 3.0625 v 6.78125 c 0,2.8125 2.109375,3.390625 3.515625,3.390625 1.6875,0 2.84375,-1.4375 2.84375,-3.40625 V -4.546875 H 8.5625 V -3.1875 c 0,1.703125 -0.796875,2.640625 -1.78125,2.640625 -1.734375,0 -1.734375,-2.109375 -1.734375,-2.5625 z m 0,0"
             id="path2615" />
        </g>
        <g
           id="use851"
           transform="translate(32.579575,187.01601)">
          <path
             d="m 11.046875,-5.71875 c 0.53125,0 0.703125,0 0.703125,-0.5625 0,-2.203125 -1.234375,-4.921875 -4.96875,-4.921875 -3.296875,0 -5.796875,2.609375 -5.796875,5.703125 0,3.1875 2.78125,5.75 6.125,5.75 C 10.5,0.25 11.75,-2.453125 11.75,-3.015625 c 0,-0.09375 -0.04687,-0.34375 -0.421875,-0.34375 -0.328125,0 -0.375,0.140625 -0.453125,0.390625 -0.78125,2.046875 -2.6875,2.421875 -3.59375,2.421875 -1.1875,0 -2.3125,-0.53125 -3.0625,-1.484375 C 3.296875,-3.21875 3.265625,-4.75 3.265625,-5.71875 Z m -7.75,-0.65625 C 3.5625,-9.921875 5.828125,-10.5 6.78125,-10.5 9.875,-10.5 9.96875,-7 10,-6.375 Z m 0,0"
             id="path2591" />
        </g>
      </g>
    </g>
    <g
       id="g1080"
       transform="matrix(0.16895639,0,0,0.16895639,-39.557128,72.33818)"
       inkscape:label="ut2">
      <g
         fill="#000000"
         fill-opacity="1"
         id="g857"
         transform="translate(1053.5037,8.7177266)">
        <g
           id="use855"
           transform="translate(-1.5416,232.0448)">
          <path
             d="M 15.703125,-2.578125 V 0.21875 L 22.046875,0 v -1.6875 c -2.21875,0 -2.46875,0 -2.46875,-1.390625 v -13.0625 l -6.5625,0.296875 v 1.671875 c 2.21875,0 2.46875,0 2.46875,1.40625 v 6.84375 c 0,2.953125 -1.828125,4.84375 -4.4375,4.84375 -2.765625,0 -2.875,-0.890625 -2.875,-2.828125 v -12.234375 l -6.5625,0.296875 v 1.671875 c 2.234375,0 2.484375,0 2.484375,1.40625 v 8.359375 c 0,3.828125 2.90625,4.625 6.453125,4.625 0.921875,0 3.515625,0 5.15625,-2.796875 z m 0,0"
             id="path2627" />
        </g>
      </g>
      <g
         fill="#000000"
         fill-opacity="1"
         id="g863"
         transform="translate(1053.5037,8.7177266)">
        <g
           id="use859"
           transform="translate(21.3724,237.4268)">
          <path
             d="M 5.046875,-9.921875 H 8.96875 v -0.90625 H 5.046875 V -15.4375 H 4.1875 c -0.015625,2.25 -1.046875,4.734375 -3.453125,4.8125 v 0.703125 H 3.0625 v 6.78125 c 0,2.8125 2.109375,3.390625 3.515625,3.390625 1.6875,0 2.84375,-1.4375 2.84375,-3.40625 V -4.546875 H 8.5625 V -3.1875 c 0,1.703125 -0.796875,2.640625 -1.78125,2.640625 -1.734375,0 -1.734375,-2.109375 -1.734375,-2.5625 z m 0,0"
             id="path2619" />
        </g>
        <g
           id="use861"
           transform="translate(32.579575,237.4268)">
          <path
             d="m 11.046875,-5.71875 c 0.53125,0 0.703125,0 0.703125,-0.5625 0,-2.203125 -1.234375,-4.921875 -4.96875,-4.921875 -3.296875,0 -5.796875,2.609375 -5.796875,5.703125 0,3.1875 2.78125,5.75 6.125,5.75 C 10.5,0.25 11.75,-2.453125 11.75,-3.015625 c 0,-0.09375 -0.04687,-0.34375 -0.421875,-0.34375 -0.328125,0 -0.375,0.140625 -0.453125,0.390625 -0.78125,2.046875 -2.6875,2.421875 -3.59375,2.421875 -1.1875,0 -2.3125,-0.53125 -3.0625,-1.484375 C 3.296875,-3.21875 3.265625,-4.75 3.265625,-5.71875 Z m -7.75,-0.65625 C 3.5625,-9.921875 5.828125,-10.5 6.78125,-10.5 9.875,-10.5 9.96875,-7 10,-6.375 Z m 0,0"
             id="path2595" />
        </g>
      </g>
    </g>
    <rect
       style="fill:none;fill-opacity:1;stroke:#000000;stroke-width:1;stroke-dasharray:none;stroke-opacity:1"
       id="rect5913"
       width="44.724709"
       height="14.479137"
       x="118.54332"
       y="84.256081"
       inkscape:label="base_learner_box"
       inkscape:export-filename="rect5913.pdf"
       inkscape:export-xdpi="96"
       inkscape:export-ydpi="96" />
    <rect
       style="fill:none;fill-opacity:1;stroke:#000000;stroke-width:1.1808;stroke-dasharray:none;stroke-opacity:1"
       id="rect5915"
       width="32.659824"
       height="15.040904"
       x="76.944092"
       y="83.57193"
       inkscape:label="projector_box" />
    <g
       id="g6019"
       transform="matrix(0.15347722,0,0,0.15347722,31.911747,89.413372)"
       inkscape:label="encoder_text">
      <g
         fill="#000000"
         fill-opacity="1"
         id="g5950">
        <g
           id="use5948"
           transform="translate(-1.0928,25.547001)">
          <path
             d="m 4.875,-2.796875 c 0,1.296875 -0.0625,1.6875 -2.828125,1.6875 H 1.1875 V 0 H 21.875 l 1.5,-9.25 h -0.890625 c -0.890625,5.515625 -1.71875,8.140625 -7.890625,8.140625 H 9.828125 c -1.6875,0 -1.765625,-0.25 -1.765625,-1.4375 V -12.125 h 3.234375 c 3.484375,0 3.875,1.15625 3.875,4.203125 H 16.0625 v -9.5 h -0.890625 c 0,3.078125 -0.390625,4.1875 -3.875,4.1875 H 8.0625 v -8.609375 c 0,-1.171875 0.078125,-1.421875 1.765625,-1.421875 h 4.625 c 5.484375,0 6.453125,1.96875 7.03125,6.953125 H 22.375 l -1,-8.078125 H 1.1875 v 1.125 h 0.859375 c 2.765625,0 2.828125,0.390625 2.828125,1.671875 z m 0,0"
             id="path2695" />
        </g>
      </g>
      <g
         clip-path="url(#clip-0)"
         id="g5958">
        <g
           fill="#000000"
           fill-opacity="1"
           id="g5956">
          <g
             id="use5952"
             transform="translate(23.317163,25.547001)">
            <path
               d="M 8.3125,-24.03125 C 8,-24.453125 7.953125,-24.484375 7.28125,-24.484375 H 1.1875 V -23.375 h 1.03125 c 0.546875,0 1.265625,0.03125 1.796875,0.0625 0.828125,0.109375 0.859375,0.140625 0.859375,0.828125 v 18.71875 c 0,0.96875 0,2.65625 -3.6875,2.65625 V 0 c 1.25,-0.03125 3.015625,-0.109375 4.1875,-0.109375 1.1875,0 2.9375,0.078125 4.203125,0.109375 V -1.109375 C 5.875,-1.109375 5.875,-2.796875 5.875,-3.765625 V -22.40625 c 0.1875,0.171875 0.21875,0.203125 0.359375,0.421875 L 20.875,-0.46875 C 21.1875,-0.03125 21.234375,0 21.484375,0 c 0.5,0 0.5,-0.25 0.5,-0.9375 v -19.796875 c 0,-0.953125 0,-2.640625 3.6875,-2.640625 v -1.109375 c -1.25,0.03125 -3.015625,0.09375 -4.1875,0.09375 -1.1875,0 -2.9375,-0.0625 -4.203125,-0.09375 V -23.375 c 3.703125,0 3.703125,1.6875 3.703125,2.640625 v 15.3125 z m 0,0"
               id="path2691" />
          </g>
          <g
             id="use5954"
             transform="translate(50.216183,25.547001)">
            <path
               d="m 2.015625,-12.265625 c 0,7.421875 5.796875,13.046875 12.46875,13.046875 5.84375,0 9.359375,-4.984375 9.359375,-9.140625 0,-0.359375 0,-0.609375 -0.46875,-0.609375 -0.390625,0 -0.390625,0.21875 -0.421875,0.578125 -0.296875,5.125 -4.125,8.0625 -8.03125,8.0625 -2.1875,0 -9.21875,-1.21875 -9.21875,-11.90625 0,-10.71875 6.984375,-11.9375 9.171875,-11.9375 3.921875,0 7.109375,3.265625 7.828125,8.5 0.0625,0.5 0.0625,0.609375 0.5625,0.609375 0.578125,0 0.578125,-0.109375 0.578125,-0.859375 v -8.5 c 0,-0.609375 0,-0.859375 -0.390625,-0.859375 -0.140625,0 -0.28125,0 -0.578125,0.4375 l -1.796875,2.640625 c -1.3125,-1.28125 -3.15625,-3.078125 -6.59375,-3.078125 -6.703125,0 -12.46875,5.703125 -12.46875,13.015625 z m 0,0"
               id="path2687" />
          </g>
        </g>
      </g>
      <g
         clip-path="url(#clip-1)"
         id="g5964">
        <g
           fill="#000000"
           fill-opacity="1"
           id="g5962">
          <g
             id="use5960"
             transform="translate(76.118149,25.547001)">
            <path
               d="m 25.859375,-12.15625 c 0,-7.3125 -5.421875,-13.125 -11.953125,-13.125 -6.40625,0 -11.890625,5.734375 -11.890625,13.125 0,7.34375 5.515625,12.9375 11.890625,12.9375 6.53125,0 11.953125,-5.6875 11.953125,-12.9375 z m -11.90625,12.015625 c -3.453125,0 -8.25,-3.15625 -8.25,-12.515625 0,-9.296875 5.234375,-11.734375 8.203125,-11.734375 3.125,0 8.25,2.546875 8.25,11.734375 0,9.5 -4.90625,12.515625 -8.203125,12.515625 z m 0,0"
               id="path2683" />
          </g>
        </g>
      </g>
      <g
         fill="#000000"
         fill-opacity="1"
         id="g5968">
        <g
           id="use5966"
           transform="translate(104.01422,25.547001)">
          <path
             d="M 1.25,-24.484375 V -23.375 h 0.859375 c 2.765625,0 2.84375,0.390625 2.84375,1.6875 v 18.890625 c 0,1.296875 -0.078125,1.6875 -2.84375,1.6875 H 1.25 V 0 h 13.125 c 6.03125,0 10.984375,-5.3125 10.984375,-12.046875 0,-6.8125 -4.84375,-12.4375 -10.984375,-12.4375 z m 8.546875,23.375 c -1.6875,0 -1.765625,-0.25 -1.765625,-1.4375 v -19.40625 C 8.03125,-23.125 8.109375,-23.375 9.796875,-23.375 H 13.375 c 2.21875,0 4.703125,0.78125 6.53125,3.328125 1.53125,2.125 1.859375,5.203125 1.859375,8 0,3.984375 -0.6875,6.125 -1.96875,7.890625 -0.71875,0.96875 -2.765625,3.046875 -6.390625,3.046875 z m 0,0"
             id="path2679" />
        </g>
      </g>
      <g
         fill="#000000"
         fill-opacity="1"
         id="g5972">
        <g
           id="use5970"
           transform="translate(131.41177,25.547001)">
          <path
             d="m 4.875,-2.796875 c 0,1.296875 -0.0625,1.6875 -2.828125,1.6875 H 1.1875 V 0 H 21.875 l 1.5,-9.25 h -0.890625 c -0.890625,5.515625 -1.71875,8.140625 -7.890625,8.140625 H 9.828125 c -1.6875,0 -1.765625,-0.25 -1.765625,-1.4375 V -12.125 h 3.234375 c 3.484375,0 3.875,1.15625 3.875,4.203125 H 16.0625 v -9.5 h -0.890625 c 0,3.078125 -0.390625,4.1875 -3.875,4.1875 H 8.0625 v -8.609375 c 0,-1.171875 0.078125,-1.421875 1.765625,-1.421875 h 4.625 c 5.484375,0 6.453125,1.96875 7.03125,6.953125 H 22.375 l -1,-8.078125 H 1.1875 v 1.125 h 0.859375 c 2.765625,0 2.828125,0.390625 2.828125,1.671875 z m 0,0"
             id="path2699" />
        </g>
      </g>
      <g
         clip-path="url(#clip-2)"
         id="g5978">
        <g
           fill="#000000"
           fill-opacity="1"
           id="g5976">
          <g
             id="use5974"
             transform="translate(155.82173,25.547001)">
            <path
               d="m 8.03125,-12.65625 v -9.296875 c 0,-0.8125 0,-1.25 0.796875,-1.359375 0.359375,-0.0625 1.390625,-0.0625 2.109375,-0.0625 3.234375,0 7.25,0.140625 7.25,5.34375 0,2.46875 -0.875,5.375 -6.171875,5.375 z m 7.5625,0.46875 c 3.484375,-0.859375 6.28125,-3.046875 6.28125,-5.84375 0,-3.453125 -4.09375,-6.453125 -9.359375,-6.453125 H 1.25 V -23.375 h 0.859375 c 2.765625,0 2.84375,0.390625 2.84375,1.6875 v 18.890625 c 0,1.296875 -0.078125,1.6875 -2.84375,1.6875 H 1.25 V 0 c 1.296875,-0.109375 3.84375,-0.109375 5.234375,-0.109375 1.40625,0 3.953125,0 5.234375,0.109375 v -1.109375 h -0.859375 c -2.75,0 -2.828125,-0.390625 -2.828125,-1.6875 V -11.875 h 4.125 c 0.578125,0 2.078125,0 3.328125,1.21875 1.375,1.296875 1.375,2.40625 1.375,4.8125 0,2.328125 0,3.765625 1.46875,5.125 1.46875,1.296875 3.4375,1.5 4.515625,1.5 2.796875,0 3.40625,-2.9375 3.40625,-3.9375 0,-0.21875 0,-0.609375 -0.46875,-0.609375 -0.390625,0 -0.390625,0.328125 -0.421875,0.578125 C 25.140625,-0.640625 23.875,0 22.984375,0 21.234375,0 20.9375,-1.828125 20.4375,-5.15625 l -0.46875,-2.875 c -0.640625,-2.296875 -2.390625,-3.484375 -4.375,-4.15625 z m 0,0"
               id="path2675" />
          </g>
        </g>
      </g>
    </g>
    <rect
       style="fill:none;fill-opacity:1;stroke:#000000;stroke-width:1;stroke-dasharray:none;stroke-opacity:1"
       id="rect2191"
       width="32.81847"
       height="15.272885"
       x="29.472763"
       y="83.929924"
       inkscape:label="encoder_box" />
    <path
       style="fill:none;stroke:#000000;stroke-width:1;stroke-dasharray:none;stroke-opacity:1;marker-end:url(#TriangleStart)"
       d="m 20.633621,87.817654 c 6.713483,0 6.713483,0 6.713483,0"
       id="path6586" />
    <path
       style="fill:none;stroke:#000000;stroke-width:1;stroke-dasharray:none;stroke-opacity:1;marker-end:url(#TriangleStart-8)"
       d="m 141.39057,83.287935 -0.0822,-9.00623"
       id="path6586-90"
       sodipodi:nodetypes="cc" />
    <path
       style="fill:none;stroke:#000000;stroke-width:1;stroke-dasharray:none;stroke-opacity:1;marker-end:url(#TriangleStart-30)"
       d="m 141.42942,109.15415 0.0331,-7.96996"
       id="path6586-9"
       sodipodi:nodetypes="cc" />
    <path
       style="fill:none;stroke:#000000;stroke-width:1;stroke-dasharray:none;stroke-opacity:1;marker-end:url(#TriangleStart-0)"
       d="M 62.403641,91.763899 74.576027,91.628993"
       id="path6586-3"
       sodipodi:nodetypes="cc" />
    <path
       style="fill:none;stroke:#000000;stroke-width:1;stroke-dasharray:none;stroke-opacity:1;marker-end:url(#TriangleStart-0-11)"
       d="m 110.07262,91.334821 h 6.56645"
       id="path6586-3-0"
       sodipodi:nodetypes="cc" />
    <path
       style="fill:none;stroke:#000000;stroke-width:1;stroke-dasharray:none;stroke-opacity:1;marker-end:url(#TriangleStart-3)"
       d="m 20.64741,95.250439 c 6.713483,0 6.713483,0 6.713483,0"
       id="path6586-0" />
    <g
       id="g1957"
       transform="translate(3.9986261,17.406005)">
      <g
         id="use8472"
         style="fill:#000000;fill-opacity:1"
         transform="matrix(0.15511391,0,0,0.15511391,60.661595,71.207027)">
        <path
           d="m 15.671875,-24.03125 c 0,-0.0625 0.109375,-0.453125 0.109375,-0.5 0,-0.03125 0,-0.359375 -0.4375,-0.359375 -0.359375,0 -0.390625,0.109375 -0.53125,0.71875 l -2.078125,8.28125 C 7.03125,-15.703125 1.75,-10.9375 1.75,-6.0625 c 0,3.40625 2.515625,6.234375 6.890625,6.5 -0.28125,1.109375 -0.53125,2.25 -0.828125,3.359375 -0.421875,1.6875 -0.78125,3.046875 -0.78125,3.15625 0,0.359375 0.25,0.390625 0.421875,0.390625 0.1875,0 0.25,-0.03125 0.359375,-0.140625 0.078125,-0.0625 0.296875,-0.921875 0.40625,-1.4375 L 9.578125,0.4375 c 5.765625,-0.1875 10.96875,-5.03125 10.96875,-9.828125 0,-2.84375 -1.90625,-6.140625 -6.890625,-6.5 z M 8.828125,-0.359375 C 6.671875,-0.46875 4.09375,-1.71875 4.09375,-5.3125 c 0,-4.296875 3.078125,-9.3125 8.421875,-9.78125 z m 4.625,-14.734375 c 2.71875,0.140625 4.765625,1.796875 4.765625,4.953125 0,4.21875 -3.09375,9.359375 -8.46875,9.78125 z m 0,0"
           id="path2671" />
      </g>
    </g>
    <g
       id="use13791"
       style="fill:#000000;fill-opacity:1"
       transform="matrix(0.15581254,0,0,0.15581254,112.62584,89.449463)">
      <path
         d="m 16.3125,-17.921875 c 0,-2.375 -0.640625,-7.359375 -4.296875,-7.359375 C 7.03125,-25.28125 1.5,-15.171875 1.5,-6.953125 c 0,3.375 1.046875,7.34375 4.3125,7.34375 5.046875,0 10.5,-10.28125 10.5,-18.3125 z m -11,4.90625 c 0.609375,-2.296875 1.328125,-5.171875 2.75,-7.71875 0.96875,-1.75 2.296875,-3.75 3.921875,-3.75 1.75,0 1.96875,2.28125 1.96875,4.328125 0,1.765625 -0.296875,3.59375 -1.15625,7.140625 z m 7.171875,1.140625 c -0.40625,1.65625 -1.15625,4.703125 -2.515625,7.28125 -1.25,2.4375 -2.625,4.203125 -4.15625,4.203125 -1.1875,0 -1.9375,-1.046875 -1.9375,-4.375 0,-1.515625 0.21875,-3.59375 1.140625,-7.109375 z m 0,0"
         id="path2667" />
    </g>
    <rect
       style="fill:none;stroke:#666666;stroke-width:1.00291;stroke-linejoin:bevel;stroke-dasharray:6.01746, 1.00291;stroke-dashoffset:0"
       id="rect875"
       width="95.774567"
       height="26.150276"
       x="70.715797"
       y="78.804253"
       ry="7.0151434" />
    <g
       id="g3159"
       transform="matrix(0.15705521,0,0,0.15705521,106.33619,72.529921)">
      <g
         clip-path="url(#clip-0-57)"
         id="g3115">
        <g
           fill="#000000"
           fill-opacity="1"
           id="g3113">
          <g
             id="use3107"
             transform="translate(1.023607,25.41744)">
            <path
               d="m 1.234375,-23.9375 v 1.09375 H 2.0625 c 2.703125,0 2.78125,0.375 2.78125,1.640625 v 18.46875 c 0,1.265625 -0.078125,1.640625 -2.78125,1.640625 H 1.234375 V 0 h 12.8125 C 19.9375,0 24.78125,-5.1875 24.78125,-11.78125 c 0,-6.65625 -4.734375,-12.15625 -10.734375,-12.15625 z M 9.5625,-1.09375 c -1.640625,0 -1.71875,-0.234375 -1.71875,-1.390625 v -18.96875 c 0,-1.15625 0.078125,-1.390625 1.71875,-1.390625 h 3.515625 c 2.171875,0 4.578125,0.765625 6.375,3.25 1.5,2.078125 1.8125,5.078125 1.8125,7.8125 0,3.890625 -0.65625,6 -1.921875,7.71875 -0.703125,0.9375 -2.703125,2.96875 -6.234375,2.96875 z m 0,0"
               id="path2659" />
          </g>
          <g
             id="use3109"
             transform="translate(27.794926,25.41744)">
            <path
               d="M 4.765625,-2.734375 C 4.765625,-1.46875 4.703125,-1.09375 2,-1.09375 H 1.15625 V 0 H 21.375 l 1.46875,-9.046875 h -0.875 c -0.875,5.40625 -1.671875,7.953125 -7.703125,7.953125 h -4.65625 c -1.65625,0 -1.71875,-0.234375 -1.71875,-1.390625 v -9.359375 h 3.15625 c 3.390625,0 3.78125,1.125 3.78125,4.09375 h 0.875 v -9.28125 h -0.875 c 0,3.015625 -0.390625,4.09375 -3.78125,4.09375 h -3.15625 v -8.40625 c 0,-1.15625 0.0625,-1.40625 1.71875,-1.40625 H 14.125 c 5.359375,0 6.3125,1.9375 6.875,6.796875 h 0.875 l -0.984375,-7.875 H 1.15625 V -22.75 H 2 c 2.703125,0 2.765625,0.390625 2.765625,1.65625 z m 0,0"
               id="path2651" />
          </g>
          <g
             id="use3111"
             transform="translate(51.657459,25.41744)">
            <path
               d="m 1.96875,-11.984375 c 0,7.25 5.671875,12.75 12.1875,12.75 5.71875,0 9.15625,-4.859375 9.15625,-8.9375 0,-0.34375 0,-0.59375 -0.46875,-0.59375 -0.375,0 -0.375,0.21875 -0.40625,0.5625 -0.28125,5.015625 -4.03125,7.890625 -7.859375,7.890625 -2.140625,0 -9,-1.1875 -9,-11.640625 0,-10.484375 6.828125,-11.671875 8.96875,-11.671875 3.8125,0 6.9375,3.1875 7.640625,8.3125 0.0625,0.484375 0.0625,0.59375 0.5625,0.59375 0.5625,0 0.5625,-0.109375 0.5625,-0.84375 v -8.296875 c 0,-0.609375 0,-0.84375 -0.390625,-0.84375 -0.140625,0 -0.28125,0 -0.5625,0.421875 l -1.75,2.59375 c -1.296875,-1.265625 -3.09375,-3.015625 -6.453125,-3.015625 -6.546875,0 -12.1875,5.5625 -12.1875,12.71875 z m 0,0"
               id="path2647" />
          </g>
        </g>
      </g>
      <g
         clip-path="url(#clip-1-5)"
         id="g3127">
        <g
           fill="#000000"
           fill-opacity="1"
           id="g3125">
          <g
             id="use3117"
             transform="translate(76.956863,25.41744)">
            <path
               d="m 25.265625,-11.875 c 0,-7.15625 -5.28125,-12.828125 -11.671875,-12.828125 -6.265625,0 -11.625,5.609375 -11.625,12.828125 0,7.171875 5.390625,12.640625 11.625,12.640625 6.390625,0 11.671875,-5.5625 11.671875,-12.640625 z m -11.625,11.734375 c -3.375,0 -8.0625,-3.078125 -8.0625,-12.234375 0,-9.078125 5.109375,-11.453125 8.015625,-11.453125 3.046875,0 8.0625,2.484375 8.0625,11.453125 0,9.296875 -4.796875,12.234375 -8.015625,12.234375 z m 0,0"
               id="path2643" />
          </g>
          <g
             id="use3119"
             transform="translate(104.21883,25.41744)">
            <path
               d="m 1.234375,-23.9375 v 1.09375 H 2.0625 c 2.703125,0 2.78125,0.375 2.78125,1.640625 v 18.46875 c 0,1.265625 -0.078125,1.640625 -2.78125,1.640625 H 1.234375 V 0 h 12.8125 C 19.9375,0 24.78125,-5.1875 24.78125,-11.78125 c 0,-6.65625 -4.734375,-12.15625 -10.734375,-12.15625 z M 9.5625,-1.09375 c -1.640625,0 -1.71875,-0.234375 -1.71875,-1.390625 v -18.96875 c 0,-1.15625 0.078125,-1.390625 1.71875,-1.390625 h 3.515625 c 2.171875,0 4.578125,0.765625 6.375,3.25 1.5,2.078125 1.8125,5.078125 1.8125,7.8125 0,3.890625 -0.65625,6 -1.921875,7.71875 -0.703125,0.9375 -2.703125,2.96875 -6.234375,2.96875 z m 0,0"
               id="path2663" />
          </g>
          <g
             id="use3121"
             transform="translate(130.99014,25.41744)">
            <path
               d="M 4.765625,-2.734375 C 4.765625,-1.46875 4.703125,-1.09375 2,-1.09375 H 1.15625 V 0 H 21.375 l 1.46875,-9.046875 h -0.875 c -0.875,5.40625 -1.671875,7.953125 -7.703125,7.953125 h -4.65625 c -1.65625,0 -1.71875,-0.234375 -1.71875,-1.390625 v -9.359375 h 3.15625 c 3.390625,0 3.78125,1.125 3.78125,4.09375 h 0.875 v -9.28125 h -0.875 c 0,3.015625 -0.390625,4.09375 -3.78125,4.09375 h -3.15625 v -8.40625 c 0,-1.15625 0.0625,-1.40625 1.71875,-1.40625 H 14.125 c 5.359375,0 6.3125,1.9375 6.875,6.796875 h 0.875 l -0.984375,-7.875 H 1.15625 V -22.75 H 2 c 2.703125,0 2.765625,0.390625 2.765625,1.65625 z m 0,0"
               id="path2655" />
          </g>
          <g
             id="use3123"
             transform="translate(154.85268,25.41744)">
            <path
               d="m 7.84375,-12.375 v -9.078125 c 0,-0.796875 0,-1.21875 0.78125,-1.328125 0.34375,-0.0625 1.359375,-0.0625 2.0625,-0.0625 3.15625,0 7.078125,0.140625 7.078125,5.21875 0,2.421875 -0.84375,5.25 -6.03125,5.25 z m 7.40625,0.453125 c 3.390625,-0.828125 6.125,-2.96875 6.125,-5.703125 0,-3.375 -3.984375,-6.3125 -9.140625,-6.3125 h -11 v 1.09375 H 2.0625 c 2.703125,0 2.78125,0.375 2.78125,1.640625 v 18.46875 c 0,1.265625 -0.078125,1.640625 -2.78125,1.640625 H 1.234375 V 0 c 1.25,-0.109375 3.75,-0.109375 5.109375,-0.109375 1.359375,0 3.859375,0 5.109375,0.109375 V -1.09375 H 10.625 c -2.703125,0 -2.78125,-0.375 -2.78125,-1.640625 V -11.59375 H 11.875 c 0.5625,0 2.03125,0 3.265625,1.1875 1.328125,1.265625 1.328125,2.34375 1.328125,4.6875 0,2.28125 0,3.6875 1.4375,5.015625 1.4375,1.265625 3.359375,1.46875 4.421875,1.46875 2.734375,0 3.328125,-2.875 3.328125,-3.84375 0,-0.21875 0,-0.609375 -0.453125,-0.609375 -0.390625,0 -0.390625,0.328125 -0.421875,0.5625 -0.21875,2.5 -1.4375,3.125 -2.3125,3.125 -1.71875,0 -2,-1.78125 -2.484375,-5.046875 l -0.46875,-2.796875 c -0.625,-2.25 -2.34375,-3.40625 -4.265625,-4.078125 z m 0,0"
               id="path2639" />
          </g>
        </g>
      </g>
    </g>
    <g
       id="g2308"
       transform="matrix(0.14471676,0,0,0.14471676,79.594542,85.881335)">
      <g
         fill="#000000"
         fill-opacity="1"
         id="g2201">
        <g
           id="use2197"
           transform="translate(21.0564,25.547001)">
          <path
             d="m 20.875,-9.25 h -0.90625 c -0.390625,3.65625 -0.890625,8.140625 -7.203125,8.140625 h -2.9375 c -1.6875,0 -1.765625,-0.25 -1.765625,-1.4375 V -21.65625 c 0,-1.21875 0,-1.71875 3.40625,-1.71875 h 1.1875 v -1.109375 c -1.28125,0.09375 -4.546875,0.09375 -6.015625,0.09375 -1.40625,0 -4.203125,0 -5.453125,-0.09375 V -23.375 h 0.859375 c 2.765625,0 2.828125,0.390625 2.828125,1.6875 v 18.890625 c 0,1.296875 -0.0625,1.6875 -2.828125,1.6875 H 1.1875 V 0 h 18.671875 z m 0,0"
             id="path2583" />
        </g>
        <g
           id="use2199"
           transform="translate(43.472252,25.547001)">
          <path
             d="m 8.0625,-21.6875 c 0,-1.296875 0.109375,-1.6875 2.953125,-1.6875 H 11.9375 v -1.109375 c -1.25,0.09375 -4.078125,0.09375 -5.453125,0.09375 -1.390625,0 -4.21875,0 -5.484375,-0.09375 V -23.375 h 0.9375 c 2.828125,0 2.9375,0.390625 2.9375,1.6875 v 18.890625 c 0,1.296875 -0.109375,1.6875 -2.9375,1.6875 H 1 V 0 c 1.265625,-0.109375 4.09375,-0.109375 5.453125,-0.109375 1.40625,0 4.234375,0 5.484375,0.109375 V -1.109375 H 11.015625 C 8.171875,-1.109375 8.0625,-1.5 8.0625,-2.796875 Z m 0,0"
             id="path2571" />
        </g>
      </g>
      <g
         fill="#000000"
         fill-opacity="1"
         id="g2205">
        <g
           id="use2203"
           transform="translate(56.423229,25.547001)">
          <path
             d="M 20.875,-24.390625 H 1.1875 v 1.125 h 0.859375 c 2.765625,0 2.828125,0.390625 2.828125,1.671875 v 18.796875 c 0,1.296875 -0.0625,1.6875 -2.828125,1.6875 H 1.1875 V 0 c 1.25,-0.109375 4.046875,-0.109375 5.453125,-0.109375 1.46875,0 4.734375,0 6.015625,0.109375 v -1.109375 h -1.1875 c -3.40625,0 -3.40625,-0.46875 -3.40625,-1.71875 v -8.828125 h 3.09375 c 3.4375,0 3.796875,1.15625 3.796875,4.203125 h 0.890625 v -9.515625 h -0.890625 c 0,3.015625 -0.359375,4.203125 -3.796875,4.203125 H 8.0625 v -9.078125 c 0,-1.171875 0.078125,-1.421875 1.765625,-1.421875 H 14.125 c 5.375,0 6.28125,2 6.859375,6.953125 H 21.875 Z m 0,0"
             id="path2563" />
        </g>
      </g>
      <g
         fill="#000000"
         fill-opacity="1"
         id="g2209">
        <g
           id="use2207"
           transform="translate(79.836136,25.547001)">
          <path
             d="M 23.875,-24.28125 H 1.96875 l -0.671875,8.078125 H 2.1875 c 0.5,-5.78125 1.046875,-6.96875 6.453125,-6.96875 0.640625,0 1.578125,0 1.9375,0.07813 0.75,0.140625 0.75,0.53125 0.75,1.359375 v 18.90625 c 0,1.21875 0,1.71875 -3.765625,1.71875 H 6.125 V 0 c 1.484375,-0.109375 5.140625,-0.109375 6.78125,-0.109375 1.65625,0 5.34375,0 6.8125,0.109375 v -1.109375 h -1.4375 c -3.765625,0 -3.765625,-0.5 -3.765625,-1.71875 v -18.90625 c 0,-0.71875 0,-1.21875 0.65625,-1.359375 0.390625,-0.07813 1.359375,-0.07813 2.046875,-0.07813 5.40625,0 5.953125,1.1875 6.453125,6.96875 H 24.5625 Z m 0,0"
             id="path2555" />
        </g>
      </g>
      <g
         fill="#000000"
         fill-opacity="1"
         id="g2213">
        <g
           id="use2211"
           transform="translate(105.7381,25.547001)">
          <path
             d="m 8.0625,-21.6875 c 0,-1.296875 0.109375,-1.6875 2.953125,-1.6875 H 11.9375 v -1.109375 c -1.25,0.09375 -4.078125,0.09375 -5.453125,0.09375 -1.390625,0 -4.21875,0 -5.484375,-0.09375 V -23.375 h 0.9375 c 2.828125,0 2.9375,0.390625 2.9375,1.6875 v 18.890625 c 0,1.296875 -0.109375,1.6875 -2.9375,1.6875 H 1 V 0 c 1.265625,-0.109375 4.09375,-0.109375 5.453125,-0.109375 1.40625,0 4.234375,0 5.484375,0.109375 V -1.109375 H 11.015625 C 8.171875,-1.109375 8.0625,-1.5 8.0625,-2.796875 Z m 0,0"
             id="path2575" />
        </g>
      </g>
      <g
         fill="#000000"
         fill-opacity="1"
         id="g2219">
        <g
           id="use2215"
           transform="translate(118.68908,25.547001)">
          <path
             d="M 8.3125,-24.03125 C 8,-24.453125 7.953125,-24.484375 7.28125,-24.484375 H 1.1875 V -23.375 h 1.03125 c 0.546875,0 1.265625,0.03125 1.796875,0.0625 0.828125,0.109375 0.859375,0.140625 0.859375,0.828125 v 18.71875 c 0,0.96875 0,2.65625 -3.6875,2.65625 V 0 c 1.25,-0.03125 3.015625,-0.109375 4.1875,-0.109375 1.1875,0 2.9375,0.078125 4.203125,0.109375 V -1.109375 C 5.875,-1.109375 5.875,-2.796875 5.875,-3.765625 V -22.40625 c 0.1875,0.171875 0.21875,0.203125 0.359375,0.421875 L 20.875,-0.46875 C 21.1875,-0.03125 21.234375,0 21.484375,0 c 0.5,0 0.5,-0.25 0.5,-0.9375 v -19.796875 c 0,-0.953125 0,-2.640625 3.6875,-2.640625 v -1.109375 c -1.25,0.03125 -3.015625,0.09375 -4.1875,0.09375 -1.1875,0 -2.9375,-0.0625 -4.203125,-0.09375 V -23.375 c 3.703125,0 3.703125,1.6875 3.703125,2.640625 v 15.3125 z m 0,0"
             id="path2543" />
        </g>
        <g
           id="use2217"
           transform="translate(145.5881,25.547001)">
          <path
             d="m 21.265625,-2.265625 c 0.46875,0.796875 1.90625,2.234375 2.296875,2.234375 0.3125,0 0.3125,-0.296875 0.3125,-0.828125 V -7.09375 c 0,-1.40625 0.15625,-1.578125 2.484375,-1.578125 v -1.125 C 25.03125,-9.75 23.0625,-9.6875 21.984375,-9.6875 c -1.4375,0 -4.484375,0 -5.78125,-0.109375 v 1.125 h 1.15625 c 3.21875,0 3.328125,0.390625 3.328125,1.71875 v 2.296875 c 0,4.015625 -4.546875,4.328125 -5.5625,4.328125 -2.328125,0 -9.421875,-1.25 -9.421875,-11.9375 0,-10.71875 7.0625,-11.90625 9.21875,-11.90625 3.828125,0 7.09375,3.234375 7.8125,8.5 0.07813,0.5 0.07813,0.609375 0.578125,0.609375 0.5625,0 0.5625,-0.109375 0.5625,-0.859375 v -8.5 c 0,-0.609375 0,-0.859375 -0.390625,-0.859375 -0.140625,0 -0.28125,0 -0.5625,0.4375 L 21.125,-22.203125 c -1.15625,-1.140625 -3.09375,-3.078125 -6.640625,-3.078125 -6.671875,0 -12.46875,5.671875 -12.46875,13.015625 0,7.359375 5.734375,13.046875 12.546875,13.046875 2.609375,0 5.484375,-0.921875 6.703125,-3.046875 z m 0,0"
             id="path2539" />
        </g>
      </g>
      <g
         fill="#000000"
         fill-opacity="1"
         id="g2223">
        <g
           id="use2221"
           transform="translate(-0.98640001,68.584999)">
          <path
             d="M 20.875,-24.390625 H 1.1875 v 1.125 h 0.859375 c 2.765625,0 2.828125,0.390625 2.828125,1.671875 v 18.796875 c 0,1.296875 -0.0625,1.6875 -2.828125,1.6875 H 1.1875 V 0 c 1.25,-0.109375 4.046875,-0.109375 5.453125,-0.109375 1.46875,0 4.734375,0 6.015625,0.109375 v -1.109375 h -1.1875 c -3.40625,0 -3.40625,-0.46875 -3.40625,-1.71875 v -8.828125 h 3.09375 c 3.4375,0 3.796875,1.15625 3.796875,4.203125 h 0.890625 v -9.515625 h -0.890625 c 0,3.015625 -0.359375,4.203125 -3.796875,4.203125 H 8.0625 v -9.078125 c 0,-1.171875 0.078125,-1.421875 1.765625,-1.421875 H 14.125 c 5.375,0 6.28125,2 6.859375,6.953125 H 21.875 Z m 0,0"
             id="path2567" />
        </g>
      </g>
      <g
         clip-path="url(#clip-0-56)"
         id="g2233">
        <g
           fill="#000000"
           fill-opacity="1"
           id="g2231">
          <g
             id="use2225"
             transform="translate(22.426508,68.584999)">
            <path
               d="m 20.875,-8.28125 c 0,5.09375 -3.484375,7.953125 -6.890625,7.953125 -1.6875,0 -5.921875,-0.890625 -5.921875,-7.703125 V -21.6875 c 0,-1.296875 0.078125,-1.6875 2.84375,-1.6875 h 0.859375 v -1.109375 c -1.265625,0.09375 -3.90625,0.09375 -5.28125,0.09375 -1.359375,0 -4.046875,0 -5.296875,-0.09375 V -23.375 h 0.859375 c 2.765625,0 2.828125,0.390625 2.828125,1.6875 v 13.515625 c 0,5.046875 4.15625,8.953125 9.03125,8.953125 4.125,0 7.359375,-3.328125 7.96875,-7.421875 0.109375,-0.703125 0.109375,-1.03125 0.109375,-2.46875 v -11.46875 c 0,-1.1875 0,-2.796875 3.6875,-2.796875 v -1.109375 c -1.28125,0.03125 -3.015625,0.09375 -4.234375,0.09375 -1.25,0 -2.96875,-0.0625 -4.265625,-0.09375 V -23.375 c 3.703125,0 3.703125,1.6875 3.703125,2.640625 z m 0,0"
               id="path2535" />
          </g>
          <g
             id="use2227"
             transform="translate(49.325527,68.584999)">
            <path
               d="M 8.3125,-24.03125 C 8,-24.453125 7.953125,-24.484375 7.28125,-24.484375 H 1.1875 V -23.375 h 1.03125 c 0.546875,0 1.265625,0.03125 1.796875,0.0625 0.828125,0.109375 0.859375,0.140625 0.859375,0.828125 v 18.71875 c 0,0.96875 0,2.65625 -3.6875,2.65625 V 0 c 1.25,-0.03125 3.015625,-0.109375 4.1875,-0.109375 1.1875,0 2.9375,0.078125 4.203125,0.109375 V -1.109375 C 5.875,-1.109375 5.875,-2.796875 5.875,-3.765625 V -22.40625 c 0.1875,0.171875 0.21875,0.203125 0.359375,0.421875 L 20.875,-0.46875 C 21.1875,-0.03125 21.234375,0 21.484375,0 c 0.5,0 0.5,-0.25 0.5,-0.9375 v -19.796875 c 0,-0.953125 0,-2.640625 3.6875,-2.640625 v -1.109375 c -1.25,0.03125 -3.015625,0.09375 -4.1875,0.09375 -1.1875,0 -2.9375,-0.0625 -4.203125,-0.09375 V -23.375 c 3.703125,0 3.703125,1.6875 3.703125,2.640625 v 15.3125 z m 0,0"
               id="path2547" />
          </g>
          <g
             id="use2229"
             transform="translate(76.224548,68.584999)">
            <path
               d="m 2.015625,-12.265625 c 0,7.421875 5.796875,13.046875 12.46875,13.046875 5.84375,0 9.359375,-4.984375 9.359375,-9.140625 0,-0.359375 0,-0.609375 -0.46875,-0.609375 -0.390625,0 -0.390625,0.21875 -0.421875,0.578125 -0.296875,5.125 -4.125,8.0625 -8.03125,8.0625 -2.1875,0 -9.21875,-1.21875 -9.21875,-11.90625 0,-10.71875 6.984375,-11.9375 9.171875,-11.9375 3.921875,0 7.109375,3.265625 7.828125,8.5 0.0625,0.5 0.0625,0.609375 0.5625,0.609375 0.578125,0 0.578125,-0.109375 0.578125,-0.859375 v -8.5 c 0,-0.609375 0,-0.859375 -0.390625,-0.859375 -0.140625,0 -0.28125,0 -0.578125,0.4375 l -1.796875,2.640625 c -1.3125,-1.28125 -3.15625,-3.078125 -6.59375,-3.078125 -6.703125,0 -12.46875,5.703125 -12.46875,13.015625 z m 0,0"
               id="path2531" />
          </g>
        </g>
      </g>
      <g
         fill="#000000"
         fill-opacity="1"
         id="g2237">
        <g
           id="use2235"
           transform="translate(102.12651,68.584999)">
          <path
             d="M 23.875,-24.28125 H 1.96875 l -0.671875,8.078125 H 2.1875 c 0.5,-5.78125 1.046875,-6.96875 6.453125,-6.96875 0.640625,0 1.578125,0 1.9375,0.07813 0.75,0.140625 0.75,0.53125 0.75,1.359375 v 18.90625 c 0,1.21875 0,1.71875 -3.765625,1.71875 H 6.125 V 0 c 1.484375,-0.109375 5.140625,-0.109375 6.78125,-0.109375 1.65625,0 5.34375,0 6.8125,0.109375 v -1.109375 h -1.4375 c -3.765625,0 -3.765625,-0.5 -3.765625,-1.71875 v -18.90625 c 0,-0.71875 0,-1.21875 0.65625,-1.359375 0.390625,-0.07813 1.359375,-0.07813 2.046875,-0.07813 5.40625,0 5.953125,1.1875 6.453125,6.96875 H 24.5625 Z m 0,0"
             id="path2559" />
        </g>
      </g>
      <g
         fill="#000000"
         fill-opacity="1"
         id="g2241">
        <g
           id="use2239"
           transform="translate(128.02847,68.584999)">
          <path
             d="m 8.0625,-21.6875 c 0,-1.296875 0.109375,-1.6875 2.953125,-1.6875 H 11.9375 v -1.109375 c -1.25,0.09375 -4.078125,0.09375 -5.453125,0.09375 -1.390625,0 -4.21875,0 -5.484375,-0.09375 V -23.375 h 0.9375 c 2.828125,0 2.9375,0.390625 2.9375,1.6875 v 18.890625 c 0,1.296875 -0.109375,1.6875 -2.9375,1.6875 H 1 V 0 c 1.265625,-0.109375 4.09375,-0.109375 5.453125,-0.109375 1.40625,0 4.234375,0 5.484375,0.109375 V -1.109375 H 11.015625 C 8.171875,-1.109375 8.0625,-1.5 8.0625,-2.796875 Z m 0,0"
             id="path2579" />
        </g>
      </g>
      <g
         clip-path="url(#clip-1-2)"
         id="g2247">
        <g
           fill="#000000"
           fill-opacity="1"
           id="g2245">
          <g
             id="use2243"
             transform="translate(140.97945,68.584999)">
            <path
               d="m 25.859375,-12.15625 c 0,-7.3125 -5.421875,-13.125 -11.953125,-13.125 -6.40625,0 -11.890625,5.734375 -11.890625,13.125 0,7.34375 5.515625,12.9375 11.890625,12.9375 6.53125,0 11.953125,-5.6875 11.953125,-12.9375 z m -11.90625,12.015625 c -3.453125,0 -8.25,-3.15625 -8.25,-12.515625 0,-9.296875 5.234375,-11.734375 8.203125,-11.734375 3.125,0 8.25,2.546875 8.25,11.734375 0,9.5 -4.90625,12.515625 -8.203125,12.515625 z m 0,0"
               id="path2527" />
          </g>
        </g>
      </g>
      <g
         fill="#000000"
         fill-opacity="1"
         id="g2251">
        <g
           id="use2249"
           transform="translate(168.87553,68.584999)">
          <path
             d="M 8.3125,-24.03125 C 8,-24.453125 7.953125,-24.484375 7.28125,-24.484375 H 1.1875 V -23.375 h 1.03125 c 0.546875,0 1.265625,0.03125 1.796875,0.0625 0.828125,0.109375 0.859375,0.140625 0.859375,0.828125 v 18.71875 c 0,0.96875 0,2.65625 -3.6875,2.65625 V 0 c 1.25,-0.03125 3.015625,-0.109375 4.1875,-0.109375 1.1875,0 2.9375,0.078125 4.203125,0.109375 V -1.109375 C 5.875,-1.109375 5.875,-2.796875 5.875,-3.765625 V -22.40625 c 0.1875,0.171875 0.21875,0.203125 0.359375,0.421875 L 20.875,-0.46875 C 21.1875,-0.03125 21.234375,0 21.484375,0 c 0.5,0 0.5,-0.25 0.5,-0.9375 v -19.796875 c 0,-0.953125 0,-2.640625 3.6875,-2.640625 v -1.109375 c -1.25,0.03125 -3.015625,0.09375 -4.1875,0.09375 -1.1875,0 -2.9375,-0.0625 -4.203125,-0.09375 V -23.375 c 3.703125,0 3.703125,1.6875 3.703125,2.640625 v 15.3125 z m 0,0"
             id="path2551" />
        </g>
      </g>
    </g>
    <g
       id="g986"
       transform="matrix(0.14390327,0,0,0.14390327,119.53037,86.006768)">
      <g
         fill="#000000"
         fill-opacity="1"
         id="g859">
        <g
           id="use857"
           transform="translate(99.4748,26.547001)">
          <path
             d="m 7.953125,-13.125 v -8.828125 C 7.953125,-23.125 8.03125,-23.375 9.71875,-23.375 h 4.453125 c 3.46875,0 4.71875,3.046875 4.71875,4.9375 0,2.296875 -1.75,5.3125 -5.734375,5.3125 z m 8.46875,0.328125 c 3.484375,-0.6875 5.953125,-2.984375 5.953125,-5.640625 0,-3.109375 -3.296875,-6.046875 -7.953125,-6.046875 h -13.125 V -23.375 H 2.15625 c 2.75,0 2.828125,0.390625 2.828125,1.6875 v 18.890625 c 0,1.296875 -0.078125,1.6875 -2.828125,1.6875 H 1.296875 V 0 H 15.34375 c 4.765625,0 8,-3.1875 8,-6.5625 0,-3.125 -2.9375,-5.8125 -6.921875,-6.234375 z m -2.21875,11.6875 H 9.71875 c -1.6875,0 -1.765625,-0.25 -1.765625,-1.4375 v -9.78125 h 6.75 c 3.546875,0 5.0625,3.328125 5.0625,5.734375 0,2.546875 -1.875,5.484375 -5.5625,5.484375 z m 0,0"
             id="path2523" />
        </g>
      </g>
      <g
         fill="#000000"
         fill-opacity="1"
         id="g865">
        <g
           id="use861-6"
           transform="translate(124.87823,26.547001)">
          <path
             d="m 14.265625,-24.953125 c -0.171875,-0.46875 -0.25,-0.71875 -0.8125,-0.71875 -0.578125,0 -0.6875,0.21875 -0.859375,0.71875 l -7.4375,21.4375 c -0.640625,1.828125 -2.078125,2.375 -4.015625,2.40625 V 0 c 0.828125,-0.03125 2.375,-0.109375 3.671875,-0.109375 1.109375,0 2.96875,0.078125 4.109375,0.109375 v -1.109375 c -1.78125,0 -2.6875,-0.90625 -2.6875,-1.828125 0,-0.109375 0.046875,-0.46875 0.078125,-0.546875 l 1.640625,-4.6875 H 16.8125 l 1.90625,5.484375 c 0.03125,0.140625 0.109375,0.359375 0.109375,0.5 0,1.078125 -2.015625,1.078125 -2.984375,1.078125 V 0 c 1.296875,-0.109375 3.8125,-0.109375 5.171875,-0.109375 1.546875,0 3.1875,0.03125 4.703125,0.109375 V -1.109375 H 25.0625 c -2.140625,0 -2.65625,-0.25 -3.046875,-1.4375 z M 12.375,-20.9375 16.421875,-9.28125 h -8.0625 z m 0,0"
             id="path2515" />
        </g>
        <g
           id="use863"
           transform="translate(151.77725,26.547001)">
          <path
             d="m 12.515625,-13.90625 -4.59375,-1.125 c -2.21875,-0.53125 -3.625,-2.46875 -3.625,-4.546875 0,-2.515625 1.9375,-4.703125 4.734375,-4.703125 6,0 6.78125,5.890625 7,7.5 0.03125,0.21875 0.03125,0.421875 0.421875,0.421875 0.46875,0 0.46875,-0.171875 0.46875,-0.859375 v -7.203125 c 0,-0.609375 0,-0.859375 -0.390625,-0.859375 -0.25,0 -0.28125,0.03125 -0.53125,0.46875 l -1.265625,2.046875 C 13.65625,-23.8125 12.1875,-25.28125 9,-25.28125 c -3.984375,0 -6.984375,3.15625 -6.984375,6.953125 0,2.984375 1.890625,5.59375 4.6875,6.5625 0.390625,0.140625 2.21875,0.578125 4.734375,1.1875 0.96875,0.25 2.046875,0.5 3.046875,1.828125 0.75,0.9375 1.109375,2.109375 1.109375,3.296875 0,2.546875 -1.78125,5.125 -4.796875,5.125 C 9.75,-0.328125 7.03125,-0.5 5.125,-2.265625 3.046875,-4.203125 2.9375,-6.484375 2.90625,-7.78125 2.875,-8.140625 2.578125,-8.140625 2.46875,-8.140625 c -0.453125,0 -0.453125,0.25 -0.453125,0.890625 v 7.171875 c 0,0.609375 0,0.859375 0.390625,0.859375 0.25,0 0.28125,-0.0625 0.53125,-0.453125 0,-0.046875 0.109375,-0.15625 1.296875,-2.046875 1.109375,1.21875 3.40625,2.5 6.59375,2.5 4.203125,0 7.0625,-3.5 7.0625,-7.453125 0,-3.578125 -2.359375,-6.53125 -5.375,-7.234375 z m 0,0"
             id="path2511" />
        </g>
      </g>
      <g
         fill="#000000"
         fill-opacity="1"
         id="g869">
        <g
           id="use867"
           transform="translate(171.70406,26.547001)">
          <path
             d="m 4.875,-2.796875 c 0,1.296875 -0.0625,1.6875 -2.828125,1.6875 H 1.1875 V 0 H 21.875 l 1.5,-9.25 h -0.890625 c -0.890625,5.515625 -1.71875,8.140625 -7.890625,8.140625 H 9.828125 c -1.6875,0 -1.765625,-0.25 -1.765625,-1.4375 V -12.125 h 3.234375 c 3.484375,0 3.875,1.15625 3.875,4.203125 H 16.0625 v -9.5 h -0.890625 c 0,3.078125 -0.390625,4.1875 -3.875,4.1875 H 8.0625 v -8.609375 c 0,-1.171875 0.078125,-1.421875 1.765625,-1.421875 h 4.625 c 5.484375,0 6.453125,1.96875 7.03125,6.953125 H 22.375 l -1,-8.078125 H 1.1875 v 1.125 h 0.859375 c 2.765625,0 2.828125,0.390625 2.828125,1.671875 z m 0,0"
             id="path2499" />
        </g>
      </g>
      <g
         clip-path="url(#clip-0-3)"
         id="g877">
        <g
           fill="#000000"
           fill-opacity="1"
           id="g875">
          <g
             id="use871"
             transform="translate(-1.1488,69.584999)">
            <path
               d="m 14.265625,-24.953125 c -0.171875,-0.46875 -0.25,-0.71875 -0.8125,-0.71875 -0.578125,0 -0.6875,0.21875 -0.859375,0.71875 l -7.4375,21.4375 c -0.640625,1.828125 -2.078125,2.375 -4.015625,2.40625 V 0 c 0.828125,-0.03125 2.375,-0.109375 3.671875,-0.109375 1.109375,0 2.96875,0.078125 4.109375,0.109375 v -1.109375 c -1.78125,0 -2.6875,-0.90625 -2.6875,-1.828125 0,-0.109375 0.046875,-0.46875 0.078125,-0.546875 l 1.640625,-4.6875 H 16.8125 l 1.90625,5.484375 c 0.03125,0.140625 0.109375,0.359375 0.109375,0.5 0,1.078125 -2.015625,1.078125 -2.984375,1.078125 V 0 c 1.296875,-0.109375 3.8125,-0.109375 5.171875,-0.109375 1.546875,0 3.1875,0.03125 4.703125,0.109375 V -1.109375 H 25.0625 c -2.140625,0 -2.65625,-0.25 -3.046875,-1.4375 z M 12.375,-20.9375 16.421875,-9.28125 h -8.0625 z m 0,0"
               id="path2519" />
          </g>
          <g
             id="use873"
             transform="translate(25.750219,69.584999)">
            <path
               d="m 8.03125,-12.65625 v -9.296875 c 0,-0.8125 0,-1.25 0.796875,-1.359375 0.359375,-0.0625 1.390625,-0.0625 2.109375,-0.0625 3.234375,0 7.25,0.140625 7.25,5.34375 0,2.46875 -0.875,5.375 -6.171875,5.375 z m 7.5625,0.46875 c 3.484375,-0.859375 6.28125,-3.046875 6.28125,-5.84375 0,-3.453125 -4.09375,-6.453125 -9.359375,-6.453125 H 1.25 V -23.375 h 0.859375 c 2.765625,0 2.84375,0.390625 2.84375,1.6875 v 18.890625 c 0,1.296875 -0.078125,1.6875 -2.84375,1.6875 H 1.25 V 0 c 1.296875,-0.109375 3.84375,-0.109375 5.234375,-0.109375 1.40625,0 3.953125,0 5.234375,0.109375 v -1.109375 h -0.859375 c -2.75,0 -2.828125,-0.390625 -2.828125,-1.6875 V -11.875 h 4.125 c 0.578125,0 2.078125,0 3.328125,1.21875 1.375,1.296875 1.375,2.40625 1.375,4.8125 0,2.328125 0,3.765625 1.46875,5.125 1.46875,1.296875 3.4375,1.5 4.515625,1.5 2.796875,0 3.40625,-2.9375 3.40625,-3.9375 0,-0.21875 0,-0.609375 -0.46875,-0.609375 -0.390625,0 -0.390625,0.328125 -0.421875,0.578125 C 25.140625,-0.640625 23.875,0 22.984375,0 21.234375,0 20.9375,-1.828125 20.4375,-5.15625 l -0.46875,-2.875 c -0.640625,-2.296875 -2.390625,-3.484375 -4.375,-4.15625 z m 0,0"
               id="path2491" />
          </g>
        </g>
      </g>
      <g
         clip-path="url(#clip-1-54)"
         id="g883">
        <g
           fill="#000000"
           fill-opacity="1"
           id="g881">
          <g
             id="use879"
             transform="translate(51.146481,69.584999)">
            <path
               d="m 2.015625,-12.265625 c 0,7.421875 5.796875,13.046875 12.46875,13.046875 5.84375,0 9.359375,-4.984375 9.359375,-9.140625 0,-0.359375 0,-0.609375 -0.46875,-0.609375 -0.390625,0 -0.390625,0.21875 -0.421875,0.578125 -0.296875,5.125 -4.125,8.0625 -8.03125,8.0625 -2.1875,0 -9.21875,-1.21875 -9.21875,-11.90625 0,-10.71875 6.984375,-11.9375 9.171875,-11.9375 3.921875,0 7.109375,3.265625 7.828125,8.5 0.0625,0.5 0.0625,0.609375 0.5625,0.609375 0.578125,0 0.578125,-0.109375 0.578125,-0.859375 v -8.5 c 0,-0.609375 0,-0.859375 -0.390625,-0.859375 -0.140625,0 -0.28125,0 -0.578125,0.4375 l -1.796875,2.640625 c -1.3125,-1.28125 -3.15625,-3.078125 -6.59375,-3.078125 -6.703125,0 -12.46875,5.703125 -12.46875,13.015625 z m 0,0"
               id="path2483" />
          </g>
        </g>
      </g>
      <g
         fill="#000000"
         fill-opacity="1"
         id="g889">
        <g
           id="use885"
           transform="translate(77.048447,69.584999)">
          <path
             d="m 21.984375,-21.6875 c 0,-1.296875 0.0625,-1.6875 2.828125,-1.6875 h 0.859375 v -1.109375 c -1.25,0.09375 -3.90625,0.09375 -5.265625,0.09375 -1.359375,0 -4.046875,0 -5.3125,-0.09375 V -23.375 h 0.859375 c 2.765625,0 2.84375,0.390625 2.84375,1.6875 v 8.390625 H 8.0625 V -21.6875 c 0,-1.296875 0.078125,-1.6875 2.84375,-1.6875 h 0.859375 v -1.109375 c -1.265625,0.09375 -3.90625,0.09375 -5.28125,0.09375 -1.359375,0 -4.046875,0 -5.296875,-0.09375 V -23.375 h 0.859375 c 2.765625,0 2.828125,0.390625 2.828125,1.6875 v 18.890625 c 0,1.296875 -0.0625,1.6875 -2.828125,1.6875 H 1.1875 V 0 c 1.25,-0.109375 3.90625,-0.109375 5.265625,-0.109375 1.359375,0 4.046875,0 5.3125,0.109375 V -1.109375 H 10.90625 C 8.140625,-1.109375 8.0625,-1.5 8.0625,-2.796875 V -12.1875 h 10.734375 v 9.390625 c 0,1.296875 -0.07813,1.6875 -2.84375,1.6875 H 15.09375 V 0 C 16.359375,-0.109375 19,-0.109375 20.375,-0.109375 c 1.359375,0 4.046875,0 5.296875,0.109375 V -1.109375 H 24.8125 c -2.765625,0 -2.828125,-0.390625 -2.828125,-1.6875 z m 0,0"
             id="path2479" />
        </g>
        <g
           id="use887"
           transform="translate(103.94746,69.584999)">
          <path
             d="m 8.0625,-21.6875 c 0,-1.296875 0.109375,-1.6875 2.953125,-1.6875 H 11.9375 v -1.109375 c -1.25,0.09375 -4.078125,0.09375 -5.453125,0.09375 -1.390625,0 -4.21875,0 -5.484375,-0.09375 V -23.375 h 0.9375 c 2.828125,0 2.9375,0.390625 2.9375,1.6875 v 18.890625 c 0,1.296875 -0.109375,1.6875 -2.9375,1.6875 H 1 V 0 c 1.265625,-0.109375 4.09375,-0.109375 5.453125,-0.109375 1.40625,0 4.234375,0 5.484375,0.109375 V -1.109375 H 11.015625 C 8.171875,-1.109375 8.0625,-1.5 8.0625,-2.796875 Z m 0,0"
             id="path2475" />
        </g>
      </g>
      <g
         fill="#000000"
         fill-opacity="1"
         id="g893">
        <g
           id="use891"
           transform="translate(116.89845,69.584999)">
          <path
             d="M 23.875,-24.28125 H 1.96875 l -0.671875,8.078125 H 2.1875 c 0.5,-5.78125 1.046875,-6.96875 6.453125,-6.96875 0.640625,0 1.578125,0 1.9375,0.07813 0.75,0.140625 0.75,0.53125 0.75,1.359375 v 18.90625 c 0,1.21875 0,1.71875 -3.765625,1.71875 H 6.125 V 0 c 1.484375,-0.109375 5.140625,-0.109375 6.78125,-0.109375 1.65625,0 5.34375,0 6.8125,0.109375 v -1.109375 h -1.4375 c -3.765625,0 -3.765625,-0.5 -3.765625,-1.71875 v -18.90625 c 0,-0.71875 0,-1.21875 0.65625,-1.359375 0.390625,-0.07813 1.359375,-0.07813 2.046875,-0.07813 5.40625,0 5.953125,1.1875 6.453125,6.96875 H 24.5625 Z m 0,0"
             id="path2467" />
        </g>
      </g>
      <g
         fill="#000000"
         fill-opacity="1"
         id="g897">
        <g
           id="use895"
           transform="translate(142.80042,69.584999)">
          <path
             d="m 4.875,-2.796875 c 0,1.296875 -0.0625,1.6875 -2.828125,1.6875 H 1.1875 V 0 H 21.875 l 1.5,-9.25 h -0.890625 c -0.890625,5.515625 -1.71875,8.140625 -7.890625,8.140625 H 9.828125 c -1.6875,0 -1.765625,-0.25 -1.765625,-1.4375 V -12.125 h 3.234375 c 3.484375,0 3.875,1.15625 3.875,4.203125 H 16.0625 v -9.5 h -0.890625 c 0,3.078125 -0.390625,4.1875 -3.875,4.1875 H 8.0625 v -8.609375 c 0,-1.171875 0.078125,-1.421875 1.765625,-1.421875 h 4.625 c 5.484375,0 6.453125,1.96875 7.03125,6.953125 H 22.375 l -1,-8.078125 H 1.1875 v 1.125 h 0.859375 c 2.765625,0 2.828125,0.390625 2.828125,1.671875 z m 0,0"
             id="path2503" />
        </g>
      </g>
      <g
         clip-path="url(#clip-2-3)"
         id="g903">
        <g
           fill="#000000"
           fill-opacity="1"
           id="g901">
          <g
             id="use899"
             transform="translate(167.21037,69.584999)">
            <path
               d="m 2.015625,-12.265625 c 0,7.421875 5.796875,13.046875 12.46875,13.046875 5.84375,0 9.359375,-4.984375 9.359375,-9.140625 0,-0.359375 0,-0.609375 -0.46875,-0.609375 -0.390625,0 -0.390625,0.21875 -0.421875,0.578125 -0.296875,5.125 -4.125,8.0625 -8.03125,8.0625 -2.1875,0 -9.21875,-1.21875 -9.21875,-11.90625 0,-10.71875 6.984375,-11.9375 9.171875,-11.9375 3.921875,0 7.109375,3.265625 7.828125,8.5 0.0625,0.5 0.0625,0.609375 0.5625,0.609375 0.578125,0 0.578125,-0.109375 0.578125,-0.859375 v -8.5 c 0,-0.609375 0,-0.859375 -0.390625,-0.859375 -0.140625,0 -0.28125,0 -0.578125,0.4375 l -1.796875,2.640625 c -1.3125,-1.28125 -3.15625,-3.078125 -6.59375,-3.078125 -6.703125,0 -12.46875,5.703125 -12.46875,13.015625 z m 0,0"
               id="path2487" />
          </g>
        </g>
      </g>
      <g
         fill="#000000"
         fill-opacity="1"
         id="g907">
        <g
           id="use905"
           transform="translate(193.11234,69.584999)">
          <path
             d="M 23.875,-24.28125 H 1.96875 l -0.671875,8.078125 H 2.1875 c 0.5,-5.78125 1.046875,-6.96875 6.453125,-6.96875 0.640625,0 1.578125,0 1.9375,0.07813 0.75,0.140625 0.75,0.53125 0.75,1.359375 v 18.90625 c 0,1.21875 0,1.71875 -3.765625,1.71875 H 6.125 V 0 c 1.484375,-0.109375 5.140625,-0.109375 6.78125,-0.109375 1.65625,0 5.34375,0 6.8125,0.109375 v -1.109375 h -1.4375 c -3.765625,0 -3.765625,-0.5 -3.765625,-1.71875 v -18.90625 c 0,-0.71875 0,-1.21875 0.65625,-1.359375 0.390625,-0.07813 1.359375,-0.07813 2.046875,-0.07813 5.40625,0 5.953125,1.1875 6.453125,6.96875 H 24.5625 Z m 0,0"
             id="path2471" />
        </g>
      </g>
      <g
         clip-path="url(#clip-3)"
         id="g915">
        <g
           fill="#000000"
           fill-opacity="1"
           id="g913">
          <g
             id="use909"
             transform="translate(219.0143,69.584999)">
            <path
               d="m 20.875,-8.28125 c 0,5.09375 -3.484375,7.953125 -6.890625,7.953125 -1.6875,0 -5.921875,-0.890625 -5.921875,-7.703125 V -21.6875 c 0,-1.296875 0.078125,-1.6875 2.84375,-1.6875 h 0.859375 v -1.109375 c -1.265625,0.09375 -3.90625,0.09375 -5.28125,0.09375 -1.359375,0 -4.046875,0 -5.296875,-0.09375 V -23.375 h 0.859375 c 2.765625,0 2.828125,0.390625 2.828125,1.6875 v 13.515625 c 0,5.046875 4.15625,8.953125 9.03125,8.953125 4.125,0 7.359375,-3.328125 7.96875,-7.421875 0.109375,-0.703125 0.109375,-1.03125 0.109375,-2.46875 v -11.46875 c 0,-1.1875 0,-2.796875 3.6875,-2.796875 v -1.109375 c -1.28125,0.03125 -3.015625,0.09375 -4.234375,0.09375 -1.25,0 -2.96875,-0.0625 -4.265625,-0.09375 V -23.375 c 3.703125,0 3.703125,1.6875 3.703125,2.640625 z m 0,0"
               id="path2463" />
          </g>
          <g
             id="use911"
             transform="translate(245.91331,69.584999)">
            <path
               d="m 8.03125,-12.65625 v -9.296875 c 0,-0.8125 0,-1.25 0.796875,-1.359375 0.359375,-0.0625 1.390625,-0.0625 2.109375,-0.0625 3.234375,0 7.25,0.140625 7.25,5.34375 0,2.46875 -0.875,5.375 -6.171875,5.375 z m 7.5625,0.46875 c 3.484375,-0.859375 6.28125,-3.046875 6.28125,-5.84375 0,-3.453125 -4.09375,-6.453125 -9.359375,-6.453125 H 1.25 V -23.375 h 0.859375 c 2.765625,0 2.84375,0.390625 2.84375,1.6875 v 18.890625 c 0,1.296875 -0.078125,1.6875 -2.84375,1.6875 H 1.25 V 0 c 1.296875,-0.109375 3.84375,-0.109375 5.234375,-0.109375 1.40625,0 3.953125,0 5.234375,0.109375 v -1.109375 h -0.859375 c -2.75,0 -2.828125,-0.390625 -2.828125,-1.6875 V -11.875 h 4.125 c 0.578125,0 2.078125,0 3.328125,1.21875 1.375,1.296875 1.375,2.40625 1.375,4.8125 0,2.328125 0,3.765625 1.46875,5.125 1.46875,1.296875 3.4375,1.5 4.515625,1.5 2.796875,0 3.40625,-2.9375 3.40625,-3.9375 0,-0.21875 0,-0.609375 -0.46875,-0.609375 -0.390625,0 -0.390625,0.328125 -0.421875,0.578125 C 25.140625,-0.640625 23.875,0 22.984375,0 21.234375,0 20.9375,-1.828125 20.4375,-5.15625 l -0.46875,-2.875 c -0.640625,-2.296875 -2.390625,-3.484375 -4.375,-4.15625 z m 0,0"
               id="path2495" />
          </g>
        </g>
      </g>
      <g
         fill="#000000"
         fill-opacity="1"
         id="g919">
        <g
           id="use917"
           transform="translate(272.31381,69.584999)">
          <path
             d="m 4.875,-2.796875 c 0,1.296875 -0.0625,1.6875 -2.828125,1.6875 H 1.1875 V 0 H 21.875 l 1.5,-9.25 h -0.890625 c -0.890625,5.515625 -1.71875,8.140625 -7.890625,8.140625 H 9.828125 c -1.6875,0 -1.765625,-0.25 -1.765625,-1.4375 V -12.125 h 3.234375 c 3.484375,0 3.875,1.15625 3.875,4.203125 H 16.0625 v -9.5 h -0.890625 c 0,3.078125 -0.390625,4.1875 -3.875,4.1875 H 8.0625 v -8.609375 c 0,-1.171875 0.078125,-1.421875 1.765625,-1.421875 h 4.625 c 5.484375,0 6.453125,1.96875 7.03125,6.953125 H 22.375 l -1,-8.078125 H 1.1875 v 1.125 h 0.859375 c 2.765625,0 2.828125,0.390625 2.828125,1.671875 z m 0,0"
             id="path2507" />
        </g>
      </g>
    </g>
  </g>
</svg>
